<svg width="33" height="33" viewBox="0 0 33 33" fill="none" xmlns="http://www.w3.org/2000/svg">
<path d="M17.5245 22.6788V14.4319H13.4011V16.4937H15.4628V22.6788H12.3702V24.7405H20.6171V22.6788H17.5245Z" fill="white"/>
<path d="M16.4937 8.24683C16.1878 8.24683 15.8889 8.33751 15.6346 8.50742C15.3803 8.67733 15.1821 8.91882 15.0651 9.20137C14.9481 9.48392 14.9174 9.79482 14.9771 10.0948C15.0368 10.3947 15.184 10.6702 15.4003 10.8865C15.6165 11.1027 15.8921 11.25 16.192 11.3097C16.492 11.3693 16.8029 11.3387 17.0854 11.2217C17.3679 11.1046 17.6094 10.9065 17.7794 10.6522C17.9493 10.3979 18.0399 10.0989 18.0399 9.79311C18.0399 9.38301 17.877 8.9897 17.5871 8.69972C17.2971 8.40974 16.9038 8.24683 16.4937 8.24683Z" fill="white"/>
<path d="M16.4937 30.9256C13.6393 30.9256 10.849 30.0792 8.4757 28.4934C6.10238 26.9076 4.2526 24.6536 3.16028 22.0165C2.06796 19.3794 1.78216 16.4776 2.33902 13.6781C2.89588 10.8786 4.27039 8.30707 6.28873 6.28873C8.30707 4.27039 10.8786 2.89588 13.6781 2.33902C16.4776 1.78216 19.3794 2.06796 22.0165 3.16028C24.6536 4.2526 26.9076 6.10238 28.4934 8.4757C30.0792 10.849 30.9256 13.6393 30.9256 16.4937C30.9256 20.3212 29.4051 23.9921 26.6986 26.6986C23.9921 29.4051 20.3212 30.9256 16.4937 30.9256ZM16.4937 4.12342C14.0471 4.12342 11.6554 4.84892 9.62112 6.20818C7.58685 7.56744 6.00132 9.49941 5.06505 11.7598C4.12877 14.0201 3.8838 16.5074 4.36111 18.907C4.83842 21.3066 6.01657 23.5107 7.74658 25.2407C9.47659 26.9707 11.6808 28.1489 14.0803 28.6262C16.4799 29.1035 18.9672 28.8585 21.2275 27.9223C23.4879 26.986 25.4199 25.4005 26.7791 23.3662C28.1384 21.3319 28.8639 18.9403 28.8639 16.4937C28.8639 13.2129 27.5606 10.0664 25.2407 7.74658C22.9209 5.42671 19.7744 4.12342 16.4937 4.12342Z" fill="white"/>
</svg>
