<svg width="45" height="45" viewBox="0 0 45 45" fill="none" xmlns="http://www.w3.org/2000/svg">
<path d="M22.7521 25.7022C22.7102 25.7022 22.6474 25.7022 22.6055 25.7022C22.5428 25.7022 22.459 25.7022 22.3962 25.7022C17.645 25.5557 14.0869 21.851 14.0869 17.2882C14.0869 12.6417 17.8753 8.85336 22.5218 8.85336C27.1683 8.85336 30.9567 12.6417 30.9567 17.2882C30.9357 21.8719 27.3567 25.5557 22.8148 25.7022C22.773 25.7022 22.773 25.7022 22.7521 25.7022ZM22.5009 11.972C19.5707 11.972 17.2055 14.358 17.2055 17.2673C17.2055 20.1347 19.4451 22.458 22.2916 22.5626C22.3544 22.5417 22.5637 22.5417 22.773 22.5626C25.5776 22.4161 27.7753 20.1138 27.7962 17.2673C27.7962 14.358 25.4311 11.972 22.5009 11.972Z" fill="white"/>
<path d="M22.5016 45C16.8714 45 11.4924 42.907 7.3273 39.0977C6.95056 38.7628 6.78311 38.2605 6.82497 37.7791C7.09707 35.2884 8.6459 32.9652 11.2203 31.2489C17.4575 27.1047 27.5667 27.1047 33.783 31.2489C36.3574 32.9861 37.9062 35.2884 38.1783 37.7791C38.2411 38.2814 38.0527 38.7628 37.676 39.0977C33.5109 42.907 28.1318 45 22.5016 45ZM10.111 37.3605C13.5854 40.2698 17.9598 41.8605 22.5016 41.8605C27.0435 41.8605 31.4179 40.2698 34.8923 37.3605C34.5155 36.0838 33.5109 34.8489 32.0248 33.8442C26.876 30.4117 18.1482 30.4117 12.9575 33.8442C11.4715 34.8489 10.4877 36.0838 10.111 37.3605Z" fill="white"/>
<path d="M22.4999 44.9998C10.0883 44.9998 0 34.9115 0 22.4999C0 10.0883 10.0883 0 22.4999 0C34.9115 0 44.9998 10.0883 44.9998 22.4999C44.9998 34.9115 34.9115 44.9998 22.4999 44.9998ZM22.4999 3.13952C11.8255 3.13952 3.13952 11.8255 3.13952 22.4999C3.13952 33.1743 11.8255 41.8603 22.4999 41.8603C33.1743 41.8603 41.8603 33.1743 41.8603 22.4999C41.8603 11.8255 33.1743 3.13952 22.4999 3.13952Z" fill="white"/>
</svg>
