<svg width="27" height="28" viewBox="0 0 27 28" fill="none" xmlns="http://www.w3.org/2000/svg">
<path d="M11.4233 23.6809C13.3543 23.6828 15.2527 23.1573 16.9333 22.1557L21.5954 27.0658C22.1634 27.664 22.9337 28 23.7369 28C24.5401 28 25.3104 27.664 25.8784 27.0658C26.4463 26.4676 26.7654 25.6563 26.7654 24.8104C26.7654 23.9645 26.4463 23.1532 25.8784 22.555L21.2163 17.6449C22.5495 15.152 22.9802 12.2349 22.4287 9.43337C21.8772 6.63182 20.3809 4.13549 18.2165 2.4063C16.0522 0.677106 13.3664 -0.167879 10.6561 0.0277016C7.94586 0.223282 5.3946 1.44619 3.47443 3.47013C1.90227 5.12586 0.831607 7.23541 0.39784 9.53201C-0.0359262 11.8286 0.186687 14.2091 1.03753 16.3724C1.88837 18.5358 3.32922 20.3848 5.17787 21.6857C7.02652 22.9866 9.19994 23.6809 11.4233 23.6809ZM5.4529 5.55383C6.8341 4.09983 8.65125 3.19516 10.5947 2.99397C12.5383 2.79279 14.4879 3.30752 16.1114 4.45047C17.735 5.59343 18.9321 7.2939 19.4987 9.26216C20.0653 11.2304 19.9665 13.3447 19.2189 15.2448C18.4714 17.1449 17.1215 18.7133 15.3991 19.6827C13.6768 20.6521 11.6886 20.9625 9.77323 20.5612C7.8579 20.1598 6.13396 19.0715 4.8951 17.4816C3.65625 15.8916 2.97913 13.8985 2.97912 11.8418C2.97573 10.6734 3.19265 9.51594 3.6173 8.43654C4.04196 7.35714 4.66589 6.37729 5.4529 5.55383Z" fill="white"/>
</svg>
