<svg width="267" height="102" viewBox="0 0 267 102" fill="none" xmlns="http://www.w3.org/2000/svg">
<path d="M41.5957 15.7305C43.627 15.7305 45.6191 15.9648 47.5723 16.4336C49.5645 16.9023 51.459 17.6055 53.2559 18.543C55.0527 19.4414 56.6348 20.6523 58.002 22.1758C59.4082 23.6992 60.1699 25.5156 60.2871 27.625V30.0859V48.7773C60.0527 51.1211 58.7637 52.3906 56.4199 52.5859C55.3262 52.5859 54.3691 52.2344 53.5488 51.5312C52.7676 50.7891 52.377 49.8711 52.377 48.7773V29.4414C52.2988 28.2305 51.8301 27.2344 50.9707 26.4531C50.1504 25.6328 49.2129 24.9883 48.1582 24.5195C47.1426 24.0508 46.0684 23.6992 44.9355 23.4648C43.8418 23.2305 42.7285 23.1133 41.5957 23.1133C40.4629 23.1133 39.3301 23.2305 38.1973 23.4648C37.1035 23.6992 36.0293 24.0508 34.9746 24.5195C33.959 24.9883 33.0215 25.6328 32.1621 26.4531C31.3418 27.2344 30.8926 28.2305 30.8145 29.4414V48.7773C30.6191 51.1211 29.3496 52.3906 27.0059 52.5859C25.9121 52.5859 24.9551 52.2344 24.1348 51.5312C23.3535 50.7891 22.9629 49.8711 22.9629 48.7773V30.0859V27.625C23.0801 25.5156 23.8223 23.6992 25.1895 22.1758C26.5566 20.6523 28.1387 19.4414 29.9355 18.543C31.7324 17.6055 33.6074 16.9023 35.5605 16.4336C37.5527 15.9648 39.5645 15.7305 41.5957 15.7305ZM105.58 21.2383C105.58 22.332 105.189 23.25 104.408 23.9922C103.666 24.7734 102.748 25.1641 101.654 25.1641H78.2168C77.4746 25.2031 76.8496 25.3789 76.3418 25.6914C75.873 25.9648 75.5215 26.2969 75.2871 26.6875C75.0527 27.0391 74.9355 27.4102 74.9355 27.8008C74.9355 28.1914 75.0527 28.582 75.2871 28.9727C75.5215 29.3242 75.873 29.6562 76.3418 29.9688C76.8496 30.2422 77.4746 30.3984 78.2168 30.4375H94.8574C97.5918 30.5156 99.8379 31.1602 101.596 32.3711C103.393 33.543 104.662 34.9102 105.404 36.4727C106.186 37.9961 106.576 39.5586 106.576 41.1602C106.576 42.7227 106.186 44.2852 105.404 45.8477C104.623 47.3711 103.354 48.7383 101.596 49.9492C99.8379 51.1211 97.5918 51.707 94.8574 51.707H94.5059C94.2715 51.7461 94.0371 51.7656 93.8027 51.7656H71.6543C70.5605 51.7656 69.623 51.3945 68.8418 50.6523C68.0996 49.8711 67.7285 48.9336 67.7285 47.8398C67.7285 46.7461 68.1191 45.8281 68.9004 45.0859C69.6426 44.3047 70.5605 43.9141 71.6543 43.9141H95.209C95.9512 43.9531 96.5566 43.8164 97.0254 43.5039C97.5332 43.1914 97.9043 42.8398 98.1387 42.4492C98.373 42.0195 98.4902 41.5898 98.4902 41.1602C98.4902 40.8867 98.373 40.5156 98.1387 40.0469C97.9043 39.5391 97.5332 39.1289 97.0254 38.8164C96.5566 38.5039 95.9512 38.3281 95.209 38.2891H78.5684C75.834 38.2109 73.5684 37.5859 71.7715 36.4141C70.0137 35.2422 68.7441 33.9141 67.9629 32.4297C67.2207 30.9062 66.8496 29.3633 66.8496 27.8008C66.8496 26.2773 67.2402 24.7734 68.0215 23.2891C68.8027 21.7656 70.0723 20.418 71.8301 19.2461C73.5879 18.0742 75.834 17.4492 78.5684 17.3711H78.9199C79.1543 17.332 79.3887 17.3125 79.623 17.3125H101.654C102.748 17.3125 103.666 17.7031 104.408 18.4844C105.189 19.2266 105.58 20.1445 105.58 21.2383ZM125.561 15.7305C126.928 15.7305 128.256 15.9648 129.545 16.4336C130.873 16.9023 132.143 17.5859 133.354 18.4844C133.549 18.6797 133.764 18.875 133.998 19.0703C134.193 18.875 134.408 18.6797 134.643 18.4844C135.854 17.5859 137.104 16.9023 138.393 16.4336C139.721 15.9648 141.049 15.7305 142.377 15.7305C143.744 15.7305 145.072 15.9648 146.361 16.4336C147.689 16.9023 148.939 17.6055 150.111 18.543C151.322 19.4414 152.377 20.6523 153.275 22.1758C154.213 23.6992 154.682 25.5156 154.682 27.625V48.7773C154.447 51.1211 153.158 52.3906 150.814 52.5859C149.721 52.5859 148.764 52.2344 147.943 51.5312C147.162 50.7891 146.771 49.8711 146.771 48.7773V28.0938C146.771 27.1562 146.596 26.375 146.244 25.75C145.893 25.0859 145.502 24.5781 145.072 24.2266C144.643 23.8359 144.193 23.5625 143.725 23.4062C143.256 23.2109 142.787 23.1133 142.318 23.1133C141.85 23.1133 141.381 23.2109 140.912 23.4062C140.482 23.5625 140.053 23.8359 139.623 24.2266C139.193 24.5781 138.803 25.0859 138.451 25.75C138.1 26.375 137.904 27.1562 137.865 28.0938V48.7773C137.631 51.1211 136.342 52.3906 133.998 52.5859C132.904 52.5859 131.947 52.2344 131.127 51.5312C130.346 50.7891 129.955 49.8711 129.955 48.7773V28.0938C129.955 27.1562 129.779 26.375 129.428 25.75C129.076 25.0859 128.686 24.5781 128.256 24.2266C127.826 23.8359 127.377 23.5625 126.908 23.4062C126.439 23.2109 125.971 23.1133 125.502 23.1133C125.033 23.1133 124.564 23.2109 124.096 23.4062C123.666 23.5625 123.236 23.8359 122.807 24.2266C122.377 24.5781 121.986 25.0859 121.635 25.75C121.283 26.375 121.088 27.1562 121.049 28.0938V48.7773C120.854 51.1211 119.584 52.3906 117.24 52.5859C116.146 52.5859 115.189 52.2344 114.369 51.5312C113.588 50.7891 113.197 49.8711 113.197 48.7773V27.625C113.275 25.5156 113.764 23.6992 114.662 22.1758C115.561 20.6523 116.615 19.4414 117.826 18.543C119.037 17.6055 120.287 16.9023 121.576 16.4336C122.904 15.9648 124.232 15.7305 125.561 15.7305ZM199.975 21.2383C199.975 22.332 199.584 23.25 198.803 23.9922C198.061 24.7734 197.143 25.1641 196.049 25.1641H172.611C171.869 25.2031 171.244 25.3789 170.736 25.6914C170.268 25.9648 169.916 26.2969 169.682 26.6875C169.447 27.0391 169.33 27.4102 169.33 27.8008C169.33 28.1914 169.447 28.582 169.682 28.9727C169.916 29.3242 170.268 29.6562 170.736 29.9688C171.244 30.2422 171.869 30.3984 172.611 30.4375H189.252C191.986 30.5156 194.232 31.1602 195.99 32.3711C197.787 33.543 199.057 34.9102 199.799 36.4727C200.58 37.9961 200.971 39.5586 200.971 41.1602C200.971 42.7227 200.58 44.2852 199.799 45.8477C199.018 47.3711 197.748 48.7383 195.99 49.9492C194.232 51.1211 191.986 51.707 189.252 51.707H188.9C188.666 51.7461 188.432 51.7656 188.197 51.7656H166.049C164.955 51.7656 164.018 51.3945 163.236 50.6523C162.494 49.8711 162.123 48.9336 162.123 47.8398C162.123 46.7461 162.514 45.8281 163.295 45.0859C164.037 44.3047 164.955 43.9141 166.049 43.9141H189.604C190.346 43.9531 190.951 43.8164 191.42 43.5039C191.928 43.1914 192.299 42.8398 192.533 42.4492C192.768 42.0195 192.885 41.5898 192.885 41.1602C192.885 40.8867 192.768 40.5156 192.533 40.0469C192.299 39.5391 191.928 39.1289 191.42 38.8164C190.951 38.5039 190.346 38.3281 189.604 38.2891H172.963C170.229 38.2109 167.963 37.5859 166.166 36.4141C164.408 35.2422 163.139 33.9141 162.357 32.4297C161.615 30.9062 161.244 29.3633 161.244 27.8008C161.244 26.2773 161.635 24.7734 162.416 23.2891C163.197 21.7656 164.467 20.418 166.225 19.2461C167.982 18.0742 170.229 17.4492 172.963 17.3711H173.314C173.549 17.332 173.783 17.3125 174.018 17.3125H196.049C197.143 17.3125 198.061 17.7031 198.803 18.4844C199.584 19.2266 199.975 20.1445 199.975 21.2383ZM220.717 42.8008C220.717 41.707 221.088 40.7891 221.83 40.0469C222.611 39.2656 223.549 38.875 224.643 38.875H233.607L232.084 34.5391C231.459 32.9375 230.834 31.4336 230.209 30.0273C229.623 28.582 228.939 27.2734 228.158 26.1016C227.455 24.9297 226.654 24.3047 225.756 24.2266C224.818 24.3047 223.979 24.9297 223.236 26.1016C222.494 27.2734 221.811 28.582 221.186 30.0273C220.6 31.4336 219.994 32.9375 219.369 34.5391L213.803 49.7734C213.412 50.5938 212.904 51.2773 212.279 51.8242C211.693 52.332 210.795 52.5859 209.584 52.5859C208.451 52.5859 207.514 52.1953 206.771 51.4141C206.068 50.6328 205.756 49.6953 205.834 48.6016C205.873 48.0938 205.99 47.625 206.186 47.1953L212.631 30.5547C214.428 26.1797 216.225 22.6445 218.021 19.9492C219.779 17.293 222.357 15.9453 225.756 15.9062C229.115 15.9453 231.674 17.293 233.432 19.9492C235.229 22.5664 237.025 26.1016 238.822 30.5547L245.268 47.1953C245.463 47.625 245.58 48.0938 245.619 48.6016C245.697 49.6953 245.365 50.6328 244.623 51.4141C243.92 52.1953 243.002 52.5859 241.869 52.5859C240.58 52.5859 239.623 52.332 238.998 51.8242C238.412 51.2773 237.924 50.5938 237.533 49.7734L236.42 46.7266H224.643C223.549 46.7266 222.631 46.3359 221.889 45.5547C221.107 44.8125 220.717 43.8945 220.717 42.8008Z" fill="#444444"/>
<path d="M29.708 63.9277C28.0999 64.0124 26.7458 64.626 25.6455 65.7686C24.5876 66.9111 23.8258 68.223 23.3604 69.7041C22.8949 71.1429 22.6621 72.624 22.6621 74.1475C22.6621 75.6709 22.8737 77.1732 23.2969 78.6543C23.7624 80.1354 24.5452 81.4473 25.6455 82.5898C26.7458 83.6901 28.0999 84.2826 29.708 84.3672H50.6553C53.3213 84.6211 54.7812 86.0811 55.0352 88.7471C54.9928 89.932 54.5485 90.9264 53.7021 91.7305C52.8558 92.4922 51.8402 92.873 50.6553 92.873H30.4062H27.4863C24.5241 92.7038 22.0908 91.5824 20.1865 89.5088C18.2822 87.3929 16.9069 85.002 16.0605 82.3359C15.2565 79.6699 14.8545 76.9404 14.8545 74.1475C14.8545 72.0739 15.0872 70.0215 15.5527 67.9902C16.0182 65.959 16.7376 64.0335 17.7109 62.2139C18.7266 60.3519 20.0596 58.765 21.71 57.4531C23.4027 56.1413 25.3281 55.4642 27.4863 55.4219H28.6924H50.6553C53.3213 55.6758 54.7812 57.1357 55.0352 59.8018C55.0352 60.9867 54.5908 61.9811 53.7021 62.7852C52.8558 63.5469 51.8402 63.9277 50.6553 63.9277H29.708ZM65.2549 54.4062C66.3975 54.4486 67.3708 54.8717 68.1748 55.6758C68.9788 56.4375 69.402 57.3896 69.4443 58.5322V64.0547H89.1221C92.0843 64.097 94.5176 64.9434 96.4219 66.5938C98.3685 68.2018 99.7438 70.0215 100.548 72.0527C101.394 74.1263 101.817 76.2633 101.817 78.4639H101.881V89.5088C101.881 90.6937 101.437 91.6882 100.548 92.4922C99.7015 93.2539 98.6859 93.6348 97.501 93.6348C94.9619 93.4232 93.5654 92.0479 93.3115 89.5088V78.4004C93.3115 77.5964 93.1423 76.75 92.8037 75.8613C92.5075 74.9727 92.0632 74.2109 91.4707 73.5762C90.8783 72.8991 90.18 72.5605 89.376 72.5605H69.4443V89.6357C69.1904 92.1748 67.7939 93.5501 65.2549 93.7617C64.07 93.7617 63.0332 93.3809 62.1445 92.6191C61.2982 91.8151 60.875 90.8206 60.875 89.6357V58.5322C60.9173 57.3473 61.3617 56.374 62.208 55.6123C63.0544 54.8083 64.07 54.4062 65.2549 54.4062ZM145.362 89.5088V74.2109C145.362 73.153 144.812 72.6029 143.712 72.5605H121.495C120.691 72.6029 119.993 72.9626 119.4 73.6396C118.808 74.2744 118.364 75.0361 118.067 75.9248C117.813 76.7712 117.687 77.6387 117.687 78.5273C117.687 79.3737 117.813 80.2412 118.067 81.1299C118.364 81.9762 118.808 82.738 119.4 83.415C119.993 84.0498 120.691 84.3672 121.495 84.3672H137.745C138.93 84.3672 139.924 84.7904 140.729 85.6367C141.575 86.4408 141.998 87.4352 141.998 88.6201C141.998 89.805 141.575 90.7995 140.729 91.6035C139.924 92.4499 138.93 92.873 137.745 92.873H121.749C118.787 92.8307 116.332 92.0055 114.386 90.3975C112.481 88.7471 111.106 86.9062 110.26 84.875C109.456 82.8014 109.054 80.6644 109.054 78.4639C109.054 76.348 109.477 74.2744 110.323 72.2432C111.17 70.1696 112.545 68.3288 114.449 66.7207C116.354 65.0703 119.168 64.1816 122.892 64.0547H149.552C150.737 64.0547 151.752 64.4567 152.599 65.2607C153.445 66.0225 153.889 66.9958 153.932 68.1807V89.5088C153.932 90.6937 153.487 91.6882 152.599 92.4922C151.752 93.2539 150.737 93.6348 149.552 93.6348C147.013 93.4232 145.616 92.0479 145.362 89.5088ZM175.895 54.4062C177.079 54.4062 178.095 54.8083 178.941 55.6123C179.788 56.374 180.232 57.3473 180.274 58.5322V64.0547H201.856C203.041 64.0547 204.057 64.4567 204.903 65.2607C205.707 66.1071 206.109 67.1227 206.109 68.3076C206.109 69.4925 205.686 70.5081 204.84 71.3545C204.036 72.1585 203.041 72.5605 201.856 72.5605H180.274V73.8301C180.232 75.5651 180.338 77.1732 180.592 78.6543C180.888 80.0931 181.565 81.3838 182.623 82.5264C183.681 83.6689 185.014 84.2826 186.622 84.3672H202.11C203.295 84.4095 204.269 84.8538 205.03 85.7002C205.834 86.5465 206.236 87.5622 206.236 88.7471C206.194 89.8896 205.771 90.863 204.967 91.667C204.205 92.4287 203.253 92.8307 202.11 92.873H184.464C181.502 92.7038 179.047 91.7093 177.101 89.8896C175.196 88.0277 173.821 85.7637 172.975 83.0977C172.171 80.4316 171.747 77.5964 171.705 74.5918V72.5605H164.405C163.22 72.5605 162.226 72.1374 161.422 71.291C160.576 70.487 160.152 69.4925 160.152 68.3076C160.152 67.1227 160.554 66.1283 161.358 65.3242C162.205 64.4779 163.22 64.0547 164.405 64.0547H171.705V58.5322C171.747 57.3896 172.171 56.4375 172.975 55.6758C173.779 54.8717 174.752 54.4486 175.895 54.4062ZM252.638 67.7363C252.638 68.7943 252.215 69.6829 251.368 70.4023C250.564 71.0794 249.57 71.418 248.385 71.418H221.534C220.984 71.418 220.54 71.5238 220.201 71.7354C219.863 71.9469 219.609 72.1797 219.439 72.4336C219.27 72.6452 219.186 72.8356 219.186 73.0049C219.186 73.2165 219.27 73.4492 219.439 73.7031C219.609 73.9147 219.863 74.1263 220.201 74.3379C220.54 74.5072 220.984 74.613 221.534 74.6553H242.291C244.957 74.6976 247.158 75.2266 248.893 76.2422C250.628 77.2155 251.855 78.3792 252.574 79.7334C253.336 81.0452 253.717 82.3783 253.717 83.7324C253.717 85.0443 253.336 86.3773 252.574 87.7314C251.812 89.0433 250.564 90.207 248.829 91.2227C247.136 92.196 244.957 92.6826 242.291 92.6826C241.826 92.7249 241.487 92.7461 241.275 92.7461H216.646C215.462 92.7461 214.446 92.4076 213.6 91.7305C212.796 91.0111 212.394 90.1436 212.394 89.1279C212.394 88.07 212.817 87.1813 213.663 86.4619C214.467 85.7848 215.462 85.4463 216.646 85.4463H242.799C243.434 85.4886 243.941 85.404 244.322 85.1924C244.745 84.9808 245.063 84.748 245.274 84.4941C245.486 84.2402 245.592 83.9863 245.592 83.7324C245.592 83.6055 245.486 83.3939 245.274 83.0977C245.063 82.7591 244.745 82.5052 244.322 82.3359C243.941 82.1243 243.434 81.9974 242.799 81.9551H221.979C219.524 81.9128 217.493 81.4049 215.885 80.4316C214.277 79.416 213.134 78.2523 212.457 76.9404C211.78 75.6286 211.441 74.3167 211.441 73.0049C211.441 71.693 211.78 70.4023 212.457 69.1328C213.176 67.821 214.319 66.6995 215.885 65.7686C217.493 64.7952 219.524 64.2663 221.979 64.1816C222.402 64.1393 222.719 64.1182 222.931 64.1182H248.385C249.57 64.1182 250.564 64.4779 251.368 65.1973C252.215 65.8743 252.638 66.7207 252.638 67.7363Z" fill="#444444"/>
</svg>
