<svg width="28" height="34" viewBox="0 0 28 34" fill="none" xmlns="http://www.w3.org/2000/svg">
<path d="M14.0481 17C17.9879 17 21.1817 13.6421 21.1817 9.5C21.1817 5.35787 17.9879 2 14.0481 2C10.1083 2 6.91443 5.35787 6.91443 9.5C6.91443 13.6421 10.1083 17 14.0481 17Z" stroke="white" stroke-width="3"/>
<path d="M21.1816 20.0001H21.6834C23.8419 20.0001 25.6627 21.69 25.9305 23.9419L26.4876 28.6279C26.7005 30.4185 25.3725 32.0001 23.6561 32.0001H4.43969C2.72335 32.0001 1.39539 30.4185 1.60827 28.6279L2.16541 23.9419C2.43315 21.69 4.25396 20.0001 6.41256 20.0001H6.91427" stroke="white" stroke-width="3" stroke-linecap="round" stroke-linejoin="round"/>
</svg>
