<svg width="33" height="34" viewBox="0 0 33 34" fill="none" xmlns="http://www.w3.org/2000/svg">
<path d="M16.6767 21.0908C18.8219 21.0908 20.561 19.2592 20.561 16.9999C20.561 14.7405 18.8219 12.909 16.6767 12.909C14.5314 12.909 12.7924 14.7405 12.7924 16.9999C12.7924 19.2592 14.5314 21.0908 16.6767 21.0908Z" stroke="white" stroke-width="3" stroke-linecap="round" stroke-linejoin="round"/>
<path d="M26.258 21.0909C26.0857 21.5022 26.0343 21.9584 26.1104 22.4008C26.1866 22.8432 26.3868 23.2513 26.6853 23.5727L26.763 23.6545C27.0037 23.9078 27.1947 24.2086 27.3251 24.5397C27.4554 24.8708 27.5225 25.2257 27.5225 25.5841C27.5225 25.9425 27.4554 26.2974 27.3251 26.6285C27.1947 26.9596 27.0037 27.2603 26.763 27.5136C26.5225 27.7672 26.2369 27.9684 25.9225 28.1056C25.6082 28.2429 25.2712 28.3135 24.9309 28.3135C24.5906 28.3135 24.2536 28.2429 23.9392 28.1056C23.6249 27.9684 23.3393 27.7672 23.0988 27.5136L23.0211 27.4318C22.716 27.1174 22.3284 26.9066 21.9084 26.8264C21.4884 26.7462 21.0552 26.8003 20.6646 26.9818C20.2817 27.1547 19.9551 27.4417 19.725 27.8075C19.495 28.1734 19.3715 28.6021 19.3699 29.0409V29.2727C19.3699 29.996 19.097 30.6897 18.6114 31.2012C18.1258 31.7127 17.4671 32 16.7803 32C16.0935 32 15.4349 31.7127 14.9493 31.2012C14.4636 30.6897 14.1908 29.996 14.1908 29.2727V29.15C14.1808 28.6986 14.0421 28.2609 13.7927 27.8937C13.5433 27.5265 13.1948 27.2468 12.7925 27.0909C12.4019 26.9094 11.9687 26.8552 11.5487 26.9354C11.1287 27.0157 10.7411 27.2265 10.436 27.5409L10.3583 27.6227C10.1178 27.8763 9.8322 28.0775 9.51784 28.2147C9.20347 28.352 8.8665 28.4226 8.5262 28.4226C8.18589 28.4226 7.84893 28.352 7.53456 28.2147C7.2202 28.0775 6.9346 27.8763 6.69411 27.6227C6.45334 27.3694 6.26234 27.0687 6.13202 26.7376C6.00171 26.4065 5.93463 26.0516 5.93463 25.6932C5.93463 25.3348 6.00171 24.9799 6.13202 24.6488C6.26234 24.3177 6.45334 24.0169 6.69411 23.7636L6.77179 23.6818C7.07028 23.3604 7.27052 22.9523 7.34667 22.5099C7.42283 22.0675 7.37142 21.6113 7.19906 21.2C7.03494 20.7967 6.76241 20.4527 6.41504 20.2104C6.06767 19.9681 5.66061 19.8381 5.24397 19.8364H5.02386C4.33707 19.8364 3.67841 19.549 3.19278 19.0376C2.70715 18.5261 2.43433 17.8324 2.43433 17.1091C2.43433 16.3858 2.70715 15.6921 3.19278 15.1806C3.67841 14.6692 4.33707 14.3818 5.02386 14.3818H5.14039C5.56895 14.3713 5.98458 14.2252 6.33325 13.9625C6.68193 13.6999 6.94751 13.3328 7.09548 12.9091C7.26784 12.4978 7.31925 12.0416 7.24309 11.5992C7.16694 11.1568 6.9667 10.7487 6.66821 10.4273L6.59052 10.3455C6.34976 10.0922 6.15876 9.79138 6.02844 9.46029C5.89813 9.12921 5.83105 8.77431 5.83105 8.41591C5.83105 8.0575 5.89813 7.70261 6.02844 7.37153C6.15876 7.04044 6.34976 6.73965 6.59052 6.48636C6.83102 6.23279 7.11662 6.03163 7.43098 5.89438C7.74535 5.75713 8.08231 5.68649 8.42262 5.68649C8.76292 5.68649 9.09989 5.75713 9.41425 5.89438C9.72862 6.03163 10.0142 6.23279 10.2547 6.48636L10.3324 6.56818C10.6375 6.88255 11.0251 7.09343 11.4451 7.17364C11.8651 7.25385 12.2983 7.1997 12.6889 7.01818H12.7925C13.1754 6.84532 13.502 6.5583 13.7321 6.19245C13.9621 5.8266 14.0856 5.39789 14.0872 4.95909V4.72727C14.0872 4.00396 14.36 3.31026 14.8457 2.7988C15.3313 2.28734 15.99 2 16.6768 2C17.3635 2 18.0222 2.28734 18.5078 2.7988C18.9935 3.31026 19.2663 4.00396 19.2663 4.72727V4.85C19.2679 5.2888 19.3914 5.71751 19.6214 6.08336C19.8515 6.44921 20.1781 6.73623 20.561 6.90909C20.9516 7.09061 21.3848 7.14476 21.8048 7.06455C22.2248 6.98434 22.6124 6.77346 22.9175 6.45909L22.9952 6.37727C23.2357 6.1237 23.5213 5.92254 23.8357 5.78529C24.15 5.64804 24.487 5.5774 24.8273 5.5774C25.1676 5.5774 25.5046 5.64804 25.8189 5.78529C26.1333 5.92254 26.4189 6.1237 26.6594 6.37727C26.9002 6.63056 27.0912 6.93135 27.2215 7.26244C27.3518 7.59352 27.4189 7.94841 27.4189 8.30682C27.4189 8.66522 27.3518 9.02012 27.2215 9.3512C27.0912 9.68229 26.9002 9.98307 26.6594 10.2364L26.5817 10.3182C26.2832 10.6396 26.083 11.0477 26.0068 11.4901C25.9307 11.9325 25.9821 12.3887 26.1544 12.8V12.9091C26.3186 13.3124 26.5911 13.6564 26.9385 13.8987C27.2858 14.141 27.6929 14.271 28.1095 14.2727H28.3296C29.0164 14.2727 29.6751 14.5601 30.1607 15.0715C30.6463 15.583 30.9192 16.2767 30.9192 17C30.9192 17.7233 30.6463 18.417 30.1607 18.9285C29.6751 19.4399 29.0164 19.7273 28.3296 19.7273H28.2131C27.7965 19.729 27.3894 19.859 27.042 20.1013C26.6947 20.3436 26.4221 20.6876 26.258 21.0909Z" stroke="white" stroke-width="3" stroke-linecap="round" stroke-linejoin="round"/>
</svg>
